<svg width="32" height="32" viewBox="0 0 32 32" fill="none" xmlns="http://www.w3.org/2000/svg">
<rect width="32" height="32" rx="6" fill="#24292e"/>
<path d="M16 8C11.58 8 8 11.58 8 16C8 19.54 10.29 22.53 13.47 23.5C13.87 23.57 14 23.33 14 23.12V21.44C11.73 21.94 11.26 20.24 11.26 20.24C10.9 19.35 10.37 19.11 10.37 19.11C9.63 18.59 10.43 18.6 10.43 18.6C11.25 18.66 11.69 19.44 11.69 19.44C12.41 20.73 13.57 20.37 14.03 20.18C14.1 19.65 14.32 19.3 14.56 19.11C12.84 18.91 11.02 18.24 11.02 15.42C11.02 14.58 11.33 13.89 11.7 13.36C11.62 13.16 11.33 12.37 11.77 11.27C11.77 11.27 12.44 11.05 13.98 12.14C14.66 11.97 15.34 11.88 16.02 11.88C16.7 11.88 17.38 11.97 18.06 12.14C19.6 11.05 20.27 11.27 20.27 11.27C20.71 12.37 20.42 13.16 20.34 13.36C20.71 13.89 21.02 14.58 21.02 15.42C21.02 18.25 19.19 18.91 17.46 19.1C17.76 19.36 18.04 19.87 18.04 20.66V23.12C18.04 23.33 18.17 23.58 18.58 23.5C21.75 22.53 24 19.54 24 16C24 11.58 20.42 8 16 8Z" fill="white"/>
</svg>