<?xml version="1.0" standalone="no"?><!DOCTYPE svg PUBLIC "-//W3C//DTD SVG 1.1//EN" "http://www.w3.org/Graphics/SVG/1.1/DTD/svg11.dtd"><svg t="1770285287547" class="icon" viewBox="0 0 1024 1024" version="1.1" xmlns="http://www.w3.org/2000/svg" p-id="6663" xmlns:xlink="http://www.w3.org/1999/xlink" width="256" height="256"><path d="M63.6928 100.5056C56.32 169.7792 53.0432 284.7232 93.8496 418.048c16.1792 52.992 47.6672 152.2688 131.584 254.0544 107.3664 130.2016 236.3904 186.4704 320 221.7984 109.7728 46.3872 212.1728 66.4576 293.632 74.8032 12.9536-78.1312 40.4992-311.7568-104.6528-524.9536-72.5504-106.5472-160.256-166.8608-201.728-194.816-186.7264-125.952-378.6752-145.2032-468.992-148.4288z" fill="#F59299" p-id="6664"></path><path d="M958.5664 88.32c-55.6032-10.2912-206.7968-30.9248-368.2816 42.6496-128.1536 58.4192-197.1712 146.2784-228.864 187.6992-107.264 140.032-126.3616 285.44-130.4064 353.4336 57.1392 11.8784 219.648 37.9392 396.3904-39.0144 55.8592-24.32 211.7632-94.976 291.5328-265.6768 55.5008-118.8864 47.0528-228.352 39.6288-279.0912z" fill="#F48F97" p-id="6665"></path><path d="M230.9632 676.9664c2.304-68.3008 15.872-122.2144 27.5968-158.1568 14.8992-45.5168 32.1536-78.3872 46.848-106.0352 16.1792-30.4128 40.2944-75.1616 82.688-124.7232 34.2528-40.0384 55.7568-65.1776 95.4368-83.1488 7.2192-3.2768 40.8576-18.0224 87.6544-19.456 17.92-0.5632 47.1552 0.5632 80.7936 11.3664 58.9312 18.944 93.7472 55.5008 100.4544 62.72 0 0 58.4704 62.976 61.0304 153.4976 0.768 27.904-4.1984 52.5312-5.5808 59.0848-3.7888 17.7664-7.8336 36.8128-19.3536 55.7568-11.9808 19.712-26.7264 29.7984-55.6544 49.2032-9.1136 6.0928-36.3008 24.6272-97.9456 52.0192-29.9008 13.312-44.9024 19.968-58.5728 25.088-75.9296 28.416-144.3328 30.5152-199.7824 31.744-37.2736 0.9728-87.0912-0.3072-145.6128-8.96z" fill="#EE4D5A" p-id="6666"></path></svg>