<?xml version="1.0" encoding="UTF-8"?>
<svg version="1.1" xmlns="http://www.w3.org/2000/svg" width="192" height="192">
<path d="M0 0 C8.30219989 8.31615317 13.07983533 18.35527703 13.25 30.125 C13.12519912 41.29467894 9.57962016 51.00707464 1.890625 59.265625 C-2.65324899 63.49612837 -7.22479786 66.71398249 -13 69 C-14.03125 69.4125 -15.0625 69.825 -16.125 70.25 C-27.37364438 72.42715698 -38.20962031 71.46521763 -48.2421875 65.71484375 C-57.47113041 59.26894783 -64.86352258 50.23120698 -67 39 C-67.99156638 25.62801906 -66.49045847 14.57183807 -57.71875 3.80859375 C-41.88396479 -12.85391887 -17.91368726 -14.63914228 0 0 Z " fill="#0E0E0E" transform="translate(123,65)"/>
<path d="M0 0 C16.50639511 -1.34780041 16.50639511 -1.34780041 21.796875 1.51171875 C23.98242679 3.87648579 25.46184535 6.16979545 27 9 C27.61875 10.051875 28.2375 11.10375 28.875 12.1875 C38.27614286 29.42292858 41.01208247 48.74100629 36.5 67.9375 C34.01277718 75.88255099 30.29055822 82.90981113 26 90 C25.55914062 90.8971875 25.11828125 91.794375 24.6640625 92.71875 C23.05811989 95.3550951 21.64771957 96.42526378 19 98 C16.54003906 98.42602539 16.54003906 98.42602539 13.890625 98.47265625 C12.94147217 98.49142822 11.99231934 98.5102002 11.0144043 98.52954102 C6.66638301 98.48602844 2.33738644 98.30310992 -2 98 C-0.81993052 94.45979156 0.0641672 94.05717516 3.0625 92 C13.60722612 84.00344299 20.28026942 71.47395463 22.71875 58.53125 C24.49680821 42.52872612 21.8835356 27.1299194 11.8203125 14.19921875 C7.86998468 9.71020987 3.73879261 5.64522508 -1 2 C-0.67 1.34 -0.34 0.68 0 0 Z " fill="#BEBEBE" transform="translate(129,47)"/>
<path d="M0 0 C0 0.99 0 1.98 0 3 C-1.94140625 4.91015625 -1.94140625 4.91015625 -4.5625 7.0625 C-14.83644134 16.08847672 -20.93094555 27.36113085 -23 41 C-24.03169158 58.00307078 -20.29878326 73.85499025 -9 87.0625 C-5.64159507 90.59144893 -2.00195936 93.24865294 2 96 C2 96.66 2 97.32 2 98 C-3.29756628 98.37021025 -8.57973982 98.57769286 -13.890625 98.47265625 C-14.76493164 98.45726807 -15.63923828 98.44187988 -16.54003906 98.42602539 C-19.50607792 97.9123555 -21.03856117 96.87916061 -23.3125 94.9375 C-24.6640625 92.71484375 -24.6640625 92.71484375 -26 90 C-26.66773438 88.90816406 -27.33546875 87.81632812 -28.0234375 86.69140625 C-38.2975993 69.56471444 -41.10923444 49.51794818 -36.4375 30.0625 C-34.09563174 22.56030449 -30.98151076 15.76856829 -27 9 C-26.484375 8.05125 -25.96875 7.1025 -25.4375 6.125 C-19.41178194 -2.80198972 -9.60432908 -0.78422445 0 0 Z " fill="#BEBEBE" transform="translate(63,47)"/>
<path d="M0 0 C5.28 0 10.56 0 16 0 C28.18814203 21.82527759 31.3968567 49.16822383 25 73.5 C22.45266814 82.18246861 18.29253935 90.06971543 14 98 C8.39 98 2.78 98 -3 98 C-1.96389321 93.85557285 -0.48516137 91.36323079 1.75 87.75 C12.81567667 69.17892943 15.16664515 45.96058031 9.99438477 25.08422852 C8.0935501 18.37172877 4.941854 12.29488299 1.609375 6.1953125 C0 3 0 3 0 0 Z " fill="#BEBEBE" transform="translate(165,47)"/>
<path d="M0 0 C5.28 0 10.56 0 16 0 C15.07102836 4.64485819 13.93471285 7.188656 11.6875 11.25 C2.31887447 29.36700334 0.99337812 51.38803098 6.58984375 70.94140625 C9.1035905 78.67094215 12.76906367 86.81496166 17.74609375 93.26171875 C19 95 19 95 19 98 C13.39 98 7.78 98 2 98 C-10.93010291 73.66098276 -16.2359757 45.02048245 -8.21166992 18.01782227 C-6.11239982 11.67314997 -3.25872734 5.83539548 0 0 Z " fill="#BEBEBE" transform="translate(11,47)"/>
<path d="M0 0 C3.0625 0.3125 3.0625 0.3125 4.73046875 1.33203125 C6.82036878 4.43930197 6.49535544 7.69974893 6.4375 11.3125 C6.44910156 12.03695312 6.46070312 12.76140625 6.47265625 13.5078125 C6.4559986 16.51729509 6.42180617 18.75514254 4.765625 21.32421875 C1.81920184 23.03395512 -0.76919396 22.07524034 -3.9375 21.3125 C-5.57926774 18.02896451 -5.12204039 14.41730362 -5.125 10.8125 C-5.13724609 10.02746094 -5.14949219 9.24242188 -5.16210938 8.43359375 C-5.16736254 6.39186274 -5.0597018 4.35057749 -4.9375 2.3125 C-2.9375 0.3125 -2.9375 0.3125 0 0 Z " fill="#F8F8F8" transform="translate(78.9375,76.6875)"/>
<path d="M0 0 C3.0625 0.3125 3.0625 0.3125 4.73046875 1.33203125 C6.82036878 4.43930197 6.49535544 7.69974893 6.4375 11.3125 C6.44910156 12.03695312 6.46070312 12.76140625 6.47265625 13.5078125 C6.4435764 18.76157241 6.4435764 18.76157241 4.6953125 21.2890625 C2.33506822 22.76845006 0.79052582 22.72170387 -1.9375 22.3125 C-3.57104492 21.03540039 -3.57104492 21.03540039 -4.9375 19.3125 C-5.20841929 16.37317135 -5.31081824 13.68143917 -5.25 10.75 C-5.25322266 9.96947266 -5.25644531 9.18894531 -5.25976562 8.38476562 C-5.1854219 0.55164063 -5.1854219 0.55164063 0 0 Z " fill="#F9F9F9" transform="translate(109.9375,76.6875)"/>
</svg>
