<?xml version="1.0" standalone="no"?><!DOCTYPE svg PUBLIC "-//W3C//DTD SVG 1.1//EN" "http://www.w3.org/Graphics/SVG/1.1/DTD/svg11.dtd"><svg t="1770275425300" class="icon" viewBox="0 0 1024 1024" version="1.1" xmlns="http://www.w3.org/2000/svg" p-id="15781" xmlns:xlink="http://www.w3.org/1999/xlink" width="256" height="256"><path d="M0 0h1024v1024H0z" fill="#FF0000" p-id="15782"></path><path d="M793.813 269.492c15.328-2.46 27.843-4.851 37.546-7.242 9.774-2.32 16.102-3.516 19.125-3.516 3.024 0 6.328 1.196 9.914 3.516 3.586 2.32 8.086 5.766 13.5 10.336s9.282 8.086 11.672 10.687c2.39 2.602 3.586 5.063 3.586 7.454 0 2.32-1.265 4.64-3.797 6.82-2.53 2.18-5.273 3.305-8.086 3.305-2.882 0-5.343-0.422-7.453-1.266-9.914-4.64-24.89-7.031-45-7.031-11.11 0-20.46 0.632-28.125 1.828s-12.726 1.828-15.328 1.828c-2.531 0-3.797-0.281-3.797-0.844 0-0.562 1.828-1.406 5.414-2.46 9.282-2.18 13.922-4.43 13.922-6.61 0-0.844-0.773-1.266-2.25-1.266-7.804 0-33.328 4.29-76.5 12.797-43.172 8.508-78.398 18-105.539 28.477-27.14 10.476-45.21 15.68-54.21 15.68-6.329 0-11.25-5.696-14.837-17.087-3.586-11.39-5.414-18.421-5.414-21.023 0-2.602 2.11-3.938 6.328-3.938l13.5 1.266c12.868 0 45.774-3.023 98.578-9.07-0.28-5.203 0.141-9.985 1.336-14.203 1.196-4.29 2.672-6.399 4.5-6.399 3.024 0 5.555-1.898 7.664-5.765l14.836-27.633c-15.609-3.305-26.648-8.367-33.046-15.258-6.47-6.89-9.704-11.672-9.704-14.414 0-8.79 24.75-17.438 74.25-26.016l11.672-21.867c2.672-4.922 4.078-8.086 4.078-9.492 0-4.922-2.46-9.703-7.453-14.203-4.922-4.57-11.39-11.813-19.336-21.867s-11.953-15.891-11.953-17.508c0-1.617 3.657-2.11 11.04-1.477a233.13 233.13 0 0 0 22.288 1.055c17.086 0 27.774-1.898 31.922-5.766 1.477-1.406 3.164-2.039 4.922-2.039 5.414 0 14.766 4.5 28.125 13.43s20.04 17.93 20.04 27c0 4.43-1.829 9.14-5.415 14.203a39.516 39.516 0 0 1-13.922 12.164c-5.695 3.024-12.164 10.617-19.336 22.711 8.086-0.562 13.922-0.492 17.578 0.211 3.586 0.703 6.961 2.883 10.125 6.61 3.164 3.726 7.875 7.523 14.204 11.32 7.804 4.71 11.671 11.32 11.671 20.039s-4.078 16.453-12.164 23.273c-12.515 10.688-19.476 20.39-20.672 29.25z m-13.008 42.469c4.5 0 10.898 1.617 19.125 4.922 8.226 3.305 15.61 7.383 22.078 12.164 6.469 4.781 10.476 8.437 12.164 10.898 1.617 2.461 2.46 6.399 2.46 11.743s-3.585 13.5-10.827 24.328c-7.172 10.898-13.782 20.039-19.828 27.421-3.586 4.149-5.414 8.508-5.414 13.22l0.421 10.757c0 4.64-1.687 7.031-4.922 7.031-1.476 0-3.023-0.28-4.5-0.843-7.523-2.461-14.835-3.727-22.078-3.727-7.172 0-19.476 1.406-36.914 4.148-17.367 2.743-28.265 4.782-32.625 6.188-4.36 1.406-6.68 3.305-6.96 5.766 0 0.843-1.337 1.265-4.079 1.265-2.672 0-6.047-2.25-10.125-6.82s-8.789-12.445-14.203-23.695-9.633-23.414-12.586-36.493-4.5-22.64-4.5-28.687c0-6.047 2.18-12.727 6.54-20.04 4.359-7.312 9.632-11.671 15.75-13.218 6.116-1.476 12.796-4.5 20.038-8.86 1.196-0.843 2.11-1.335 2.672-1.476 0.563-0.14 0.914 0 0.914 0.422s-0.633 1.195-1.828 2.25c-8.437 6.047-12.586 11.39-12.586 16.102 0 1.898 1.266 4.64 3.797 8.015 2.531 3.445 4.43 6.54 5.625 9.281 1.195 2.743 2.742 4.149 4.711 4.149s4.64-0.985 8.086-2.883c3.445-1.898 11.672-5.625 24.75-11.11s23.273-9.35 30.586-11.53c7.312-2.18 12.375-4.57 15.047-7.032s5.906-3.656 9.21-3.656z m-10.407 40.008c-22.5 3.586-37.195 6.61-44.086 9.07-6.89 2.461-15.89 7.734-27 15.68-0.632 3.023-0.914 5.765-0.914 8.226 0 11.813 5.977 17.72 18 17.72 5.977 0 15.399-1.759 28.125-5.345s21.516-10.828 26.297-21.867c4.782-10.969 7.172-17.719 7.172-20.18 0-2.46-0.914-3.726-2.672-3.726s-3.375 0.14-4.922 0.422z m-59.343-67.219c12.023-1.617 23.625-6.75 34.875-15.258s20.953-19.195 29.039-31.992c8.086-12.797 12.164-21.094 12.164-24.96 0-1.618-1.547-2.462-4.711-2.462s-7.453 1.547-12.797 4.57c-15.61 8.79-26.578 14.555-32.836 17.297-11.39 15.68-18.351 26.227-20.953 31.782-2.602 5.484-4.219 12.445-4.781 21.023z m76.5 378.21c26.367-2.179 48.234-3.304 65.46-3.304s30.587 4.078 40.079 12.164c9.422 8.086 14.203 17.016 14.203 26.578 0 2.461-1.617 4.922-4.922 7.454s-6.96 3.726-11.04 3.726-7.593-0.703-10.546-2.039c-3.023-1.406-6.047-2.039-9.21-2.039s-7.384 0.984-12.587 2.883c-5.273 1.898-12.656 2.883-22.289 2.883-9.633 0-21.726-1.266-36.422-3.727 3.867 4.43 5.836 7.945 5.836 10.758 0 2.742-2.39 4.148-7.172 4.148l-9.422-0.843c-13.78 0-30.304 5.062-49.5 15.257-3.586 6.61-9 17.086-16.171 31.36 15.328-7.172 31.078-17.016 47.25-29.672 3.586-3.024 7.523-4.5 11.671-4.5 7.805 0 13.922 4.008 18.422 11.953 4.5 7.945 6.75 14.625 6.75 19.969s-0.773 8.578-2.25 9.703c-3.586 2.18-11.53 20.32-23.836 54.422 20.391 14.554 46.97 26.086 79.664 34.664 14.696 3.867 26.016 8.578 33.961 14.203s11.953 10.758 11.953 15.258-1.828 7.453-5.414 8.86c-3.586 1.405-13.57 2.038-29.953 2.038s-31.218-3.164-44.578-9.492c-13.36-6.328-33.82-20.46-61.453-42.469-10.828 9.914-23.555 16.946-38.25 21.235s-25.383 6.398-31.922 6.398-13.219-2.18-19.828-6.61c-3.586-1.898-8.508-3.866-14.625-5.765-6.187-1.898-10.898-2.883-14.203-2.883-11.672 9.352-19.336 13.992-22.922 13.992-3.586 0-5.414-1.476-5.414-4.359s1.406-8.437 4.29-16.734c2.882-8.227 9-16.735 18.42-25.383s18.985-20.25 28.548-34.875c-4.5-3.586-9.07-5.485-13.711-5.766-4.64-0.281-6.961-0.843-6.961-1.687 0-2.742 10.195-5.203 30.586-7.453 6.328-9.352 11.25-17.72 14.836-25.172-7.524 4.148-14.063 6.187-19.547 6.187-5.555 0-11.39-3.234-17.578-9.703-6.188-6.469-9.211-10.547-9.211-12.164s0.492-2.601 1.547-2.883c1.054-0.281 3.234-0.422 6.539-0.422 5.976 0 25.664-6.75 58.922-20.25 4.5-8.226 6.75-14.062 6.75-17.507 0-3.446-4.078-5.836-12.164-7.243-10.828 3.868-20.672 5.766-29.672 5.766h-7.664c-12.024 0-23.836 6.258-35.578 18.773-11.672 12.516-19.97 26.86-24.75 43.102-2.11 7.172-4.5 10.758-7.172 10.758s-5.836-5.203-9.422-15.68c-3.586-10.476-5.414-17.156-5.414-20.25 0-3.023 1.054-5.203 3.164-6.61 4.219-2.741 8.156-8.648 11.953-17.718 3.726-9.07 5.625-16.242 5.625-21.445 0-1.407-0.914-3.375-2.672-5.977-1.828-2.601-2.672-4.992-2.672-7.242 0-2.18 0.914-3.305 2.672-3.305 5.133 0 12.305 8.649 21.586 26.016 15.328-9.914 28.336-16.524 39.164-19.828-0.281-6.328-2.11-13.922-5.414-22.922-3.305-8.93-5.977-14.485-8.086-16.735-5.976-4.921-9-8.226-9-9.914 0-1.617 1.195-2.46 3.586-2.46 2.39 0 6.398 1.125 11.953 3.304 5.555 2.18 9.774 3.305 12.586 3.305 2.883 0 7.242-3.164 13.29-9.492 13.218-13.5 24.96-20.25 35.296-20.25s18.703 4.43 24.96 13.218c5.977-5.484 9.634-8.226 10.83-8.226 1.194 0 1.827 0.422 1.827 1.265 0 2.18-2.11 7.594-6.328 16.102 1.477 4.43 2.25 9.211 2.25 14.414 0 5.203-1.336 9.563-4.078 13.008-2.672 3.445-6.258 5.133-10.547 5.133s-8.508-2.461-12.375-7.453c-3.867-4.922-6.469-12.024-7.664-21.235-1.195-9.21-4.5-13.851-9.914-13.851-2.39 0-4.781 1.195-7.172 3.515-2.39 2.32-4.219 8.438-5.414 18.352-1.195 9.914-1.828 17.789-1.828 23.695 0 5.906 0.562 9.14 1.828 9.703 15.61-2.742 30.305-4.78 44.086-6.187 12.023-6.61 21.867-15.399 29.672-26.367 7.804-10.97 11.672-20.04 11.672-27.211s-4.22-15.117-12.586-23.907c-28.477 6.61-48.305 10.899-59.414 13.008-11.11 2.04-20.813 3.094-29.04 3.094s-15.046-0.633-20.46-1.828c-5.414-1.266-8.086-2.672-8.086-4.36s4.36-2.812 13.078-3.515 22.078-4.922 40.078-12.797c18-7.805 32.906-15.68 44.79-23.484 11.812-7.805 16.874-12.868 15.046-15.047-1.195-1.407-1.828-2.742-1.828-4.149 0-1.406 2.32-2.039 6.96-2.039 4.641 0 11.602 2.25 20.954 6.82s16.523 9.704 21.586 15.47c5.062 5.765 7.664 10.195 7.664 13.218 0 4.711-5.836 7.594-17.578 8.86-11.672 1.265-20.672 2.812-27 4.71 17.086 7.453 27.562 14.203 31.5 20.391 3.867 6.188 5.836 11.742 5.836 16.734 0 4.922-2.672 10.547-8.086 16.735s-12.516 13.57-21.164 21.867z m-49.078 167.485c-5.977-6.047-18.914-13.078-38.672-21.023-16.172 19.828-32.274 37.265-48.164 52.383 2.39 1.898 7.945 2.883 16.664 2.883 8.718 0 15.89-0.774 21.586-2.25s13.57-5.274 23.625-11.32c10.054-6.118 18.351-13.009 24.96-20.673z m14.836-20.672c3.585-5.203 7.804-12.656 12.585-22.289 4.782-9.632 7.172-15.187 7.172-16.734s-0.28-2.25-0.914-2.25c-2.11 0-6.328 2.04-12.586 6.188-6.328 4.148-19.336 10.687-39.164 19.828 11.18 3.304 22.149 8.437 32.907 15.257z m42.75-105.609c18-2.742 32.906-7.031 44.789-12.797 11.812-5.765 17.789-10.617 17.789-14.414 0-3.867-5.414-5.765-16.172-5.765-7.172 0-19.617 1.265-37.336 3.726-17.719 2.461-37.828 6.188-60.328 11.11 6.89 7.453 10.336 12.234 10.336 14.413 0 2.18-0.141 4.008-0.422 5.344 12.586-4.43 21.867-6.61 27.914-6.61 5.976 0.071 10.476 1.759 13.43 4.993zM195.875 264.43c1.477 1.406 3.445 2.039 5.836 2.039 2.39 0 5.555-1.899 9.422-5.766 3.867-3.867 10.476-5.765 19.828-5.765 9.281 0 16.594 2.601 21.797 7.804 5.273 5.203 7.875 11.602 7.875 19.195s-2.953 14.274-8.79 20.18c-5.835 5.906-8.788 12.305-8.788 19.195 0 3.024 0.422 5.555 1.336 7.665 0.914 2.039 1.336 3.937 1.336 5.554 0 11.813-18 19.828-54 23.906-0.282 16.243-2.11 24.329-5.415 24.329-1.195 0-3.726-1.477-7.664-4.57-3.937-3.024-7.875-6.962-11.953-11.743a51.595 51.595 0 0 1-9.21-15.89c-2.11-5.766-4.22-11.391-6.329-16.946-4.781 8.508-11.531 18.07-20.25 28.688-8.719 10.617-15.469 17.367-20.25 20.39-4.781 3.024-9.633 4.57-14.414 4.57-9.914 0-14.836-4.78-14.836-14.413 0-3.024 0.422-5.696 1.336-8.016 0.914-2.32 2.11-3.516 3.586-3.516l2.25 0.844c1.195 0 2.672-0.914 4.5-2.672s7.172-8.437 16.172-20.039c9-11.531 17.86-25.172 26.578-40.851-1.828-3.305-3.867-6.047-6.328-8.227-2.39-2.18-3.586-4.64-3.586-7.453 0-2.742 1.195-4.64 3.586-5.766 2.39-1.125 5.555-1.687 9.422-1.828 3.867-0.14 7.664-0.21 11.25-0.21 14.976-28.337 26.086-47.04 33.328-56.11 1.828-2.461 2.672-4.711 2.672-6.82 0-2.04-1.336-4.993-4.078-8.86l-7.172-10.336c-7.172-9.914-11.32-15.89-12.375-17.93-1.055-2.039-1.547-3.937-1.547-5.554 0-3.586 2.25-5.344 6.75-5.344 2.672 0 6.61 1.055 11.672 3.094a43.253 43.253 0 0 0 16.172 3.094c10.195 0 16.804-3.446 19.828-10.336 0.914-2.18 2.812-3.305 5.836-3.305 3.023 0 8.719 0.914 17.086 2.672 8.367 1.758 14.203 5.344 17.297 10.687 3.164 5.344 4.71 11.25 4.71 17.72 0 6.468-5.413 13.991-16.171 22.5-15.89 13.007-32.063 31.007-48.305 54.14z m-5.414 61.875c7.805-3.586 14.484-8.016 20.039-13.43 5.555-5.344 8.297-8.93 8.297-10.688s-1.195-2.671-3.586-2.671c-9.633 0-16.945-1.758-22.078-5.344s-8.719-5.344-10.828-5.344c-2.11 0-3.727 0.422-4.922 1.266 6.68 11.46 11.039 23.554 13.078 36.21z m213.75 23.906c5.976 3.023 13.64 6.047 22.922 9.07 22.781 7.453 39.445 19.547 49.922 36.281 10.476 16.735 15.75 29.32 15.75 37.547 0 4.43-2.883 6.61-8.578 6.61s-11.391-1.336-17.086-3.938c-5.696-2.601-15.47-8.648-29.25-18.14s-23.414-16.735-28.829-21.657c-5.414-4.921-13.64-11.39-24.75-19.406-14.132 12.375-31.078 18.563-50.835 18.563-8.438 0-16.243-1.618-23.625-4.922-7.383-3.305-16.243-8.086-26.79-14.414-10.195 33.539-24.187 50.343-41.835 50.343-5.415 0-11.18-2.18-17.297-6.609-6.188-4.43-9.211-7.805-9.211-10.336s0.914-3.726 2.672-3.726c0.28 0 0.984 0.351 2.039 1.054 1.054 0.703 3.937 1.055 8.789 1.055 9.281 0 17.86-7.805 25.664-23.484 7.804-15.68 13.078-36.422 15.75-62.297-3.305-0.563-6.328 0.14-9 2.039-0.914 0.844-1.828 1.265-2.672 1.265s-1.336-0.562-1.336-1.617c0-2.46 2.46-4.57 7.453-6.398 4.922-1.758 7.453-6.68 7.453-14.625 0.281-4.64 1.969-17.719 4.922-39.164 3.024-21.446 4.5-34.735 4.5-39.797 0-5.063-1.195-8.86-3.586-11.32-2.39-2.461-3.586-4.922-3.586-7.454 0-4.64 3.727-7.03 11.25-7.03 18 0 27.774 8.226 29.25 24.75 13.781-9.915 27.422-18 40.922-24.329 0.563-12.938 1.477-22.078 2.672-27.422 1.195-5.344 1.828-9.703 1.828-13.008l-0.422-10.336c0-3.023-0.773-4.57-2.25-4.57-2.39 0-4.36 3.727-5.836 11.11-0.28 2.18-1.828 3.304-4.5 3.304-1.195 0-2.039-0.492-2.46-1.476-0.423-0.985-0.704-4.782-0.704-11.532s1.899-15.257 5.625-25.593c3.727-10.336 6.61-16.524 8.578-18.563 1.97-2.039 6.961-3.094 15.047-3.094s13.922 4.29 17.578 12.797c3.586 8.508 5.414 16.524 5.414 23.906 0 7.454-0.984 13.57-2.953 18.352-1.968 4.852-5.343 15.61-10.125 32.344 11.11-5.766 19.196-9.774 24.328-11.953 5.063-2.18 9.493-3.305 13.29-3.305 3.726 0 9 1.898 15.75 5.766 6.75 3.867 12.093 8.648 15.96 14.414 3.868 5.765 5.836 10.476 5.836 13.992 0 3.586-0.773 7.172-2.25 10.687-1.476 3.586-3.304 6.047-5.414 7.453-7.804 5.485-13.851 11.25-18.21 17.297a62.79 62.79 0 0 1-16.173 15.47c-6.468 4.288-13.43 6.398-20.953 6.398s-14.554-2.18-21.164-6.61c-0.28 3.867 0.282 6.54 1.828 8.016 1.477 1.547 4.5 2.672 9 3.515 9.914 2.18 17.93 6.961 24.047 14.204 6.118 7.312 9.211 15.328 9.211 24.117 0 3.304-1.195 8.297-3.586 15.047-2.39 6.75-4.078 12.234-4.922 16.523-0.984 4.5-2.601 9.352-5.062 14.836z m-49.5 7.031c-23.695-15.96-43.945-27.07-60.75-33.398-0.633 8.508-3.727 24.469-9.422 47.812 10.195 2.18 18.281 3.305 24.328 3.305 15.54 0 30.867-5.906 45.844-17.719z m16.242-22.71c5.977-11.25 9-20.884 9-28.9 0-4.148-1.547-6.187-4.71-6.187-3.165 0-6.891 0.844-11.25 2.461-4.36 1.617-7.454 2.461-9.212 2.461-6.89 0-11.531-4.57-13.922-13.781-2.39-9.211-3.586-16.875-3.586-22.922 0-6.047 0.914-10.195 2.672-12.375 6.328-7.664 10.196-15.82 11.672-24.328-11.11 4.71-18.633 7.031-22.5 7.031-3.937 0-6.89-0.14-9-0.422-5.414 6.328-9.773 10.97-13.078 13.993-3.305 3.023-5.555 8.015-6.75 15.046-1.195 7.032-1.969 20.672-2.25 41.063 12.867 0 25.313 3.023 37.336 9.07l35.578 17.79z m2.672-94.43a15.61 15.61 0 0 0 3.586 0.421c8.719 0 17.86-5.976 27.422-17.93 9.633-11.952 14.414-21.374 14.414-28.265 0-2.18-0.914-4.57-2.672-7.242-1.828-2.602-3.234-3.938-4.29-3.938-1.054 0-2.32 0.844-3.796 2.461a397.744 397.744 0 0 1-32.836 29.25c-1.547 11.04-2.11 19.477-1.828 25.243zM244.039 623.656c10.828 6.328 18.281 11.672 22.5 16.102 4.219 4.43 6.328 9.21 6.328 14.414 0 5.203-0.281 9.773-0.914 13.64-2.11 15.961-3.164 34.383-3.164 55.266 0 20.883 1.406 39.867 4.29 56.953 2.812 17.016 4.288 30.094 4.288 39.164 0 27.774-4.36 41.625-13.078 41.625-3.937 0-7.805-2.883-11.672-8.648a853.945 853.945 0 0 0-38.672-51.961c-0.914 11.25-2.812 20.11-5.625 26.367-2.882 6.328-5.554 9.492-8.086 9.492-2.53 0-5.273-3.304-8.086-9.914-2.882-6.61-4.289-10.828-4.289-12.797 0-1.898 0.493-4.43 1.547-7.453 1.055-3.023 1.547-6.89 1.547-11.531s-1.195-11.11-3.586-19.406c-3.304 1.125-6.187 1.617-8.578 1.617-5.976 0-13.922-3.586-23.836-10.758 0.281 6.047 0.422 11.531 0.422 16.524 0 18.14-2.953 32.273-8.79 42.257-5.835 10.055-10.827 15.047-14.835 15.047s-7.102-3.164-9.21-9.492c-2.11-6.328-3.165-11.812-3.165-16.523 0-4.641 0.844-8.72 2.46-12.164 1.618-3.446 3.446-5.274 5.415-5.555 1.969-0.281 3.516-3.375 4.71-9.281 1.196-5.907 1.83-13.5 1.83-22.711s-0.915-18.352-2.673-27.422c-1.828-9.07-2.672-16.805-2.672-23.274 0-6.468 1.547-16.101 4.711-28.898 3.164-12.797 5.836-21.024 8.086-24.75 2.25-3.727 5.766-6.54 10.547-8.438 17.719-6.046 33.61-15.468 47.672-28.265 14.133-12.797 21.164-22.922 21.164-30.305 0-3.305-1.195-5.344-3.586-6.187-39.305 19.828-63.914 32.343-73.828 37.757-9.914 5.344-18.211 10.336-24.961 14.836s-11.953 6.82-15.54 6.82c-5.976 0-9-3.866-9-11.53 0-7.665 2.25-15.188 6.75-22.5 4.5-7.313 11.392-12.516 20.673-15.68 9.281-3.164 20.039-8.93 32.203-17.297s20.531-15.54 25.172-21.445c4.64-5.907 6.96-11.18 6.96-15.891s-1.054-7.945-3.163-9.914c-2.11-1.899-3.164-3.445-3.164-4.57 0-2.461 1.757-3.727 5.203-3.727s9.773 1.547 18.914 4.57c9.14 3.024 16.734 7.594 22.71 13.64 5.977 6.048 9 12.235 9 18.563 0 3.024-0.773 5.907-2.25 8.649 9.563 2.18 16.243 5.836 20.04 10.898 3.726 5.063 5.625 10.899 5.625 17.508s-4.711 15.61-14.344 26.578z m-54.914 56.953c0.563-6.047 0.422-11.53-0.422-16.523-4.5-0.844-8.437-2.742-11.672-5.766-9.633-0.562-17.086-1.406-22.5-2.46 1.477 12.656 2.25 25.734 2.25 39.163 11.672-6.046 22.43-10.828 32.344-14.414z m-34.172 65.602c4.219-1.125 9.14-4.57 14.836-10.336 5.695-5.766 8.578-9.422 8.578-10.898 0-1.477-0.773-2.954-2.25-4.36l-19.828-15.68c-0.914 10.758-1.336 24.47-1.336 41.274z m59.414 49.922c13.781 6.328 22.43 9.492 25.875 9.492 3.446 0 5.203-2.25 5.203-6.82s-0.984-18.352-2.953-41.485c-1.969-23.133-2.953-43.172-2.953-60.187l0.914-28.477c0-5.203-0.422-9.773-1.336-13.64s-3.023-5.766-6.328-5.766-6.89 1.125-10.828 3.305c1.195 6.328 1.476 13.922 0.914 22.71 8.719 4.923 13.078 10.688 13.078 17.087s-3.445 14.062-10.336 22.921c-3.304 4.43-4.922 7.805-4.922 10.336 0 2.461 1.196 4.852 3.586 7.032 8.719 7.945 13.078 14.695 13.078 20.18 0 5.484-7.172 9.07-21.586 10.757-0.07 4.36-0.562 15.188-1.406 32.555z m170.508-86.625c12.586-2.461 22.992-3.727 31.29-3.727 8.226 0 15.75 4.219 22.5 12.586s10.124 14.625 10.124 18.774c0 6.328-5.555 9.492-16.664 9.492-3.023 0-6.54-0.281-10.547-0.844-4.078-0.562-9.422-0.844-16.172-0.844s-13.43 0.703-20.039 2.04c0.563 52.523-1.476 95.132-6.328 127.827-4.781 32.696-9.14 49.079-13.078 49.079-1.477 0-3.094-3.797-4.711-11.32-1.688-7.594-3.938-29.462-6.75-65.813-2.883-36.281-4.43-66.024-4.71-89.086-9 3.586-21.306 9.914-36.915 18.984-4.219 2.461-9.21 3.727-15.047 3.727-5.836 0-11.18-2.883-15.96-8.649-4.782-5.765-7.173-12.797-7.173-21.023 0-4.149 1.618-9.563 4.922-16.313 3.305-6.75 10.195-19.195 20.672-37.336-6.61-5.484-9.914-13.78-9.914-24.75 0-5.484 0.984-9.421 2.953-11.742 1.969-2.32 6.82-4.71 14.625-7.242 7.805-2.46 17.649-8.508 29.461-18.14 11.883-9.633 20.11-18.563 24.75-26.79 4.64-8.226 6.961-13.078 6.961-14.414 0-1.406-0.281-2.039-0.914-2.039s-1.828 0.563-3.586 1.617l-46.828 28.477c-8.719 5.203-15.399 7.805-20.04 7.805-4.64 0-7.945-3.657-9.913-10.899-1.969-7.312-2.953-13.148-2.953-17.508 0-10.968 3.304-17.578 9.914-19.828 14.062-5.484 21.164-14.554 21.164-27.21 0-4.149-1.828-7.032-5.414-8.649-1.196-0.563-1.828-1.617-1.828-3.305 0-1.687 2.39-3.304 7.171-4.922 4.782-1.617 11.743-2.46 20.954-2.46 9.14 0 16.664 2.18 22.5 6.609s9.21 10.336 10.125 17.719c15.609 3.023 26.086 8.437 31.5 16.312 5.414 7.875 8.086 14.555 8.086 20.25s-2.25 11.39-6.75 17.297-11.532 13.922-21.165 24.117c20.672 7.172 31.079 14.696 31.079 22.711 0 6.047-9.141 11.672-27.422 16.945v32.485z m-35.086 9.844c0-8.227-0.633-18.422-1.828-30.516-12.586 4.922-23.274 8.367-31.922 10.336-1.195 4.922-1.828 12.094-1.828 21.445s1.476 13.992 4.5 13.992c1.195 0 2.531-0.562 4.078-1.617 9.281-6.047 18.281-10.617 27-13.64z" fill="#FFFFFF" p-id="15783"></path></svg>