<?xml version="1.0" encoding="utf-8"?>
<!-- Generator: Adobe Illustrator 26.4.1, SVG Export Plug-In . SVG Version: 6.00 Build 0)  -->
<svg version="1.1" id="图层_1" xmlns="http://www.w3.org/2000/svg" xmlns:xlink="http://www.w3.org/1999/xlink" x="0px" y="0px"
	 viewBox="0 0 40 40" style="enable-background:new 0 0 40 40;" xml:space="preserve">
<style type="text/css">
	.st0{fill:#0A2540;}
	.st1{fill-rule:evenodd;clip-rule:evenodd;fill:#17A3CE;}
</style>
<circle class="st0" cx="20" cy="20" r="15.6"/>
<path class="st1" d="M11.3,9.8c2.3-2,5.4-3.2,8.7-3.2c0,0,0.1,0,0.1,0l-1.2,15c0,0.5-0.5,0.9-1,0.8l-6.7-0.5c-0.5,0-0.9-0.5-0.8-1
	L11.3,9.8z M8.1,26.2c-1-1.8-1.5-3.9-1.5-6.2c0-2,0.4-3.9,1.2-5.6l0.3,0c0.5,0,0.9,0.5,0.8,1L8.1,26.2z M18,33.3
	c-3.3-0.5-6.2-2.2-8.2-4.6l0.3-4.1c0-0.5,0.5-0.9,1-0.8l6.7,0.5c0.5,0,0.9,0.5,0.8,1L18,33.3z M28.7,30.2c-2.3,2-5.4,3.2-8.7,3.2
	c0,0-0.1,0-0.1,0l1.3-16.1c0-0.5,0.5-0.9,1-0.8l6.7,0.5c0.5,0,0.9,0.5,0.8,1L28.7,30.2z M31.9,13.8c1,1.9,1.5,4,1.5,6.2
	c0,2-0.4,3.9-1.2,5.6l-0.3,0c-0.5,0-0.9-0.5-0.8-1L31.9,13.8z M30.2,11.3l-0.2,3c0,0.5-0.5,0.9-1,0.8l-6.7-0.5c-0.5,0-0.9-0.5-0.8-1
	L22,6.7C25.2,7.2,28.1,8.9,30.2,11.3z"/>
</svg>
