<?xml version="1.0" standalone="no"?><!DOCTYPE svg PUBLIC "-//W3C//DTD SVG 1.1//EN" "http://www.w3.org/Graphics/SVG/1.1/DTD/svg11.dtd"><svg t="1770275592482" class="icon" viewBox="0 0 1024 1024" version="1.1" xmlns="http://www.w3.org/2000/svg" p-id="26207" xmlns:xlink="http://www.w3.org/1999/xlink" width="256" height="256"><path d="M0 0m225.890154 0l572.219692 0q225.890154 0 225.890154 225.890154l0 572.219692q0 225.890154-225.890154 225.890154l-572.219692 0q-225.890154 0-225.890154-225.890154l0-572.219692q0-225.890154 225.890154-225.890154Z" fill="#EE3731" p-id="26208"></path><path d="M280.725047 864.454516l-56.635994-328.614599a610.844676 610.844676 0 0 1-51.282037 67.491947l-8.104955-3.367813q23.438987-75.251485 39.278808-176.668281 15.469731-106.338983 15.790476-204.474321l137.401809 15.691785c-1.060923 9.782693-9.264568 16.098883-24.425892 18.627826q-16.54299 83.714193-43.806233 154.783669l32.074403 5.464985c-0.629152 7.056369-6.834315 12.644717-18.504463 16.962425l67.491946 391.147349c-0.209717 4.095655-7.574494 10.942306-22.007975 20.317901-16.629345 10.214464-33.308034 16.839062-49.801679 19.738094z m133.096438-25.696532l-81.18525-470.210753 111.026781-8.746443c0.222054 9.585312-6.106473 16.641681-19.158287 21.267797l66.44336 384.89284 225.421374-38.859373 34.220921-66.01159a177.901912 177.901912 0 0 1-35.05979 9.474286L698.827231 673.562471l-4.416398-25.474478-94.545472 16.320936 2.948378 16.740372c0.629152 3.996964-5.057887 9.572976-17.172143 16.740371-14.630862 8.52439-32.32113 14.519836-52.848747 18.109702l-16.740371 2.837351L447.721662 323.211295l78.545279 14.803571-9.165877-57.067765L356.75372 308.407725l-8.536726-17.788958 165.627284-28.644909-15.691785-91.17766 129.296855-11.26305c-0.320744 12.003229-7.895238 20.971725-23.056562 26.745118 0.629152 11.361741 1.468021 31.272543 2.738661 59.584372l28.102112-4.835833 37.79845-73.499729 36.540148 19.984821q41.178599 22.637127 65.283747 37.79845c-0.641488 7.475803-6.427217 12.212946-17.591577 14.100401l-149.614755 25.733541c0.629152 22.42741 1.233631 44.965846 1.998482 67.393256l26.745118-4.638452 36.219403-58.745504 92.028865 49.123183c-4.107991 8.104955-12.53369 14.322455-25.06738 18.84988l51.393063 297.749154c0.209717 1.36933-2.109509 4.107991-6.957678 8.104955A107.399906 107.399906 0 0 1 762.852675 656.291638q60.953703 33.073644 96.445264 54.440132c-0.530461 7.475803-6.427217 12.212946-17.591577 14.112737l-347.452142 60.003807 2.208199 12.743407c0.740179 4.428735-6.106473 11.16436-20.737336 20.108184s-30.643392 15.691785-45.903405 18.319419zM561.955883 444.35385l94.545472-16.283928-14.100401-81.814401-94.668835 16.283927z m16.851398 97.913284l94.545472-16.320937-13.56994-79.174431-94.656498 16.320937z m17.788958 103.291915l94.656499-16.320937-14.630863-84.553061-94.557808 16.320936z" fill="#FFFFFF" p-id="26209"></path></svg>