<?xml version="1.0" standalone="no"?><!DOCTYPE svg PUBLIC "-//W3C//DTD SVG 1.1//EN" "http://www.w3.org/Graphics/SVG/1.1/DTD/svg11.dtd"><svg t="1770278363208" class="icon" viewBox="0 0 1024 1024" version="1.1" xmlns="http://www.w3.org/2000/svg" p-id="51655" xmlns:xlink="http://www.w3.org/1999/xlink" width="256" height="256"><path d="M512 53.461333c44.544 0 83.456 24.277333 104.106667 60.245334l195.797333 338.432 189.866667 328.149333c2.005333 3.157333 8.96 15.317333 11.52 21.077333a119.808 119.808 0 0 1-145.322667 163.669334l-337.109333-111.189334a59.733333 59.733333 0 0 0-18.858667-2.986666 59.733333 59.733333 0 0 0-18.858667 2.986666l-337.066666 111.189334-6.912 1.962666a119.466667 119.466667 0 0 1-29.184 3.541334 119.893333 119.893333 0 0 1-112.810667-160.554667c1.28-3.882667 3.157333-7.509333 4.736-11.264 3.072-6.4 6.869333-12.288 10.325333-18.432l189.824-328.149333 195.754667-338.432A119.893333 119.893333 0 0 1 512 53.461333" fill="#394EFF" p-id="51656"></path></svg>