<?xml version="1.0" standalone="no"?><!DOCTYPE svg PUBLIC "-//W3C//DTD SVG 1.1//EN" "http://www.w3.org/Graphics/SVG/1.1/DTD/svg11.dtd"><svg t="1770277183460" class="icon" viewBox="0 0 1024 1024" version="1.1" xmlns="http://www.w3.org/2000/svg" p-id="20029" xmlns:xlink="http://www.w3.org/1999/xlink" width="256" height="256"><path d="M979.1 459.6c-25.3-143.7-112-261.2-228.3-330.3l-0.1-0.1c2.1-5.7 3.7-11.8 4.5-15.8C779.9-14.7 613.4-36.8 583.6 60.1c-0.3 1.4-0.6 3-0.7 4.6-30-2.7-59.1-2.3-84.6-0.6-5 0.5-3.9 3.5 0.1 3.7 56.5 2.3 109.4 13.6 158.9 34.4 112.3 47.2 185.9 123.2 195.1 247.3C863.1 494.4 765.5 651 535 701.4c-37.9 7.8-77.8 10.1-113.3 20.3-96.2 27.7-136.3 136.4-84.5 219.5 34.2 54.9 108.4 94.2 226.9 79.7 4-0.5 16-2.4 16-2.4 2.8-0.4 5.6-0.8 8.4-1.3 262-46.1 436.8-295.8 390.6-557.6z" fill="#030000" p-id="20030"></path><path d="M139.6 815.1c-20.3-38.4 111.9-35.6 215.8-150.1 55.2-48.2 22.7-124.3-35.7-94.3C169.8 638.4 20.4 614 81.8 434.1c5.4 3.7 11.4 6.5 17.9 8.2 2 0.5 5.5 0.3 4.9-4.7 0.7-39.3 13.1-62.2 29.4-73.7 47.9-31.6 117.8-22.3 144.5 14 20 27.2 49.9 41.6 62.3 49.6 2.4 1.5 4.3 2.8 5.5 3.7l1.1 0.9c1.4 1.1 2.8 2.3 4 3.6-22.9 10.4-38.8 28 7.8 30.7 0 0 1.5 0.1 3.8-0.3 0.2 5.5-0.2 11.2-1.1 17-3.2 20.9-18.4 43.1-28.9 57.5-0.6 0.8-0.5 0.7-1.2 1.7-6.3 8.1 4.6 17.6 12.6 7.9 0.7-0.8 1.4-1.8 2.2-3 0.7-0.8 1.4-1.8 2.2-3 24.2-33.2 44.5-96.1 5.8-126.2-0.4-0.3-0.9-0.7-1.5-1.1-1.6-1.2-3.6-2.5-6.1-4.1 4-14.8 6-31.8 16.5-55.2 12-26.5 21.6-47.1 4.6-67.4-29.6-35.2-92.2-4.2-120.3 46.6-32.3-8.4-70.5-2.7-101.1 10.5-3.4-4.9-10.3-9.9-16.8-11.6-7.7-2-16.9-2.5-24.6-1.4-30.2 4.4-51.1 32.3-46.7 62.5 1.7 11.8 7 22.2 14.7 30.2-30.2 66.5-43.8 151-31.1 228.1 0 0 0.7 5 2.6 13.8l0.2 0.8c1.5 7.3 3.3 14.5 5.3 21.6 2.1 7.5 4.5 14.6 7 21.5C79 775 130.2 875.2 246.5 949.2c2.4 1.6 4.9-1.1 2.3-3.5-37-31.9-77.2-76.7-109.2-130.6z" fill="#030000" p-id="20031"></path><path d="M224.1 427.3c-21.1 7.2-32.9 35.5-33.9 55.7-1.2 26.8 12.5 49.2 24.1 53.9 11.6 4.7 26.5 2.9 30.6-19.8 4-22.8 16.9-37.8 20-55 3.1-18.1-17.1-42.9-40.8-34.8zM133.5 238.3c6.1 5.4 16.7 4.8 24.3-4 32.3-35.6 70.1-66.4 112.4-90.9 10.2-7.1 6.8-13 4.2-17.5-59.5-83.6-213.4-7.7-144 108.5 0.9 1.5 1.9 2.9 3.1 3.9zM572.6 532c2.5-5.5-3.3-10.2-8.7-5.2-14.6 13.7-39.7 25.3-53.1 14.4-8.4-6.8-8.5-20.3-0.7-25.8 69.3-48.5 20.8-58.1-24.5-50.1s-87.6 33.6-5.9 55.5c9.2 2.5 13.7 15.2 8.2 24.4-8.9 14.8-36.4 12.5-54.9 4.6-6.8-2.9-10.7 3.5-6.4 7.8 30.8 31 127.5 13.9 146-25.6zM625.7 392.9c30.4 14.3 73-5.7 75.5-49.2 5.6-97.2-141.6-148.5-165.4-83.1-9.1 24.9 7 40.9 27.4 61.8 31.9 32.7 31.2 55.7 62.5 70.5z" fill="#030000" p-id="20032"></path></svg>