<?xml version="1.0" standalone="no"?><!DOCTYPE svg PUBLIC "-//W3C//DTD SVG 1.1//EN" "http://www.w3.org/Graphics/SVG/1.1/DTD/svg11.dtd"><svg t="1770280807990" class="icon" viewBox="0 0 1024 1024" version="1.1" xmlns="http://www.w3.org/2000/svg" p-id="67897" xmlns:xlink="http://www.w3.org/1999/xlink" width="256" height="256"><path d="M28.63003 82.475h589.695a57.259 57.259 0 0 1 41.814 18.133l348.416 372.267a57.259 57.259 0 0 1 0 78.25L660.13903 923.35a57.259 57.259 0 0 1-41.814 18.176H28.71503A28.63 28.63 0 0 1 0.00003 912.853V619.392h562.773l97.11-97.28a14.336 14.336 0 0 0 0-20.224l-97.11-97.28H0.00003V111.104a28.63 28.63 0 0 1 28.63-28.63z" fill="#1F1F1F" p-id="67898"></path></svg>