<svg width="32" height="32" viewBox="0 0 32 32" fill="none" xmlns="http://www.w3.org/2000/svg">
<rect width="32" height="32" rx="6" fill="#E6162D"/>
<path d="M13.5 12C10.5 12 8 14.5 8 17.5C8 20.5 10.5 23 13.5 23C16.5 23 19 20.5 19 17.5C19 14.5 16.5 12 13.5 12Z" fill="white"/>
<circle cx="13.5" cy="17.5" r="2" fill="#E6162D"/>
<path d="M20 10C18.5 10 17.5 11 17.5 12.5C17.5 14 18.5 15 20 15C21.5 15 22.5 14 22.5 12.5C22.5 11 21.5 10 20 10Z" fill="white"/>
<circle cx="20" cy="12.5" r="0.8" fill="#E6162D"/>
</svg>